<?xml version="1.0" encoding="iso-8859-1"?>
<!-- Generator: Adobe Illustrator 19.0.0, SVG Export Plug-In . SVG Version: 6.00 Build 0)  -->
<svg xmlns="http://www.w3.org/2000/svg" xmlns:xlink="http://www.w3.org/1999/xlink" version="1.1" id="Capa_1" x="0px" y="0px" viewBox="0 0 512 512" style="enable-background:new 0 0 512 512;" xml:space="preserve" width="512px" height="512px">
<g>
	<g>
		<path d="M493.518,18.48c-24.642-24.64-64.739-24.64-89.381,0L190.268,232.349l89.385,89.384L493.52,107.864    C518.161,83.222,518.161,43.125,493.518,18.48z" fill="#FFFFFF"/>
	</g>
</g>
<g>
	<g>
		<path d="M166.789,345.208c-15.403-15.403-35.883-23.885-57.668-23.885c-21.784,0-42.265,8.483-57.67,23.886    C0.586,396.077,0,492.901,0,497C0,505.283,6.718,512,15.001,512c4.098,0,100.922-0.586,151.788-51.454    c15.405-15.403,23.889-35.884,23.889-57.669C190.679,381.095,182.195,360.612,166.789,345.208z" fill="#FFFFFF"/>
	</g>
</g>
<g>
	<g>
		<path d="M169.053,253.562l-39.603,39.602c22.057,4.039,42.358,14.634,58.554,30.828c16.197,16.198,26.793,36.499,30.832,58.558    l39.603-39.603L169.053,253.562z" fill="#FFFFFF"/>
	</g>
</g>
<g>
</g>
<g>
</g>
<g>
</g>
<g>
</g>
<g>
</g>
<g>
</g>
<g>
</g>
<g>
</g>
<g>
</g>
<g>
</g>
<g>
</g>
<g>
</g>
<g>
</g>
<g>
</g>
<g>
</g>
</svg>
