<?xml version="1.0" encoding="iso-8859-1"?>
<!-- Generator: Adobe Illustrator 19.0.0, SVG Export Plug-In . SVG Version: 6.00 Build 0)  -->
<svg xmlns="http://www.w3.org/2000/svg" xmlns:xlink="http://www.w3.org/1999/xlink" version="1.1" id="Capa_1" x="0px" y="0px" viewBox="0 0 512 512" style="enable-background:new 0 0 512 512;" xml:space="preserve" width="512px" height="512px">
<g>
	<g>
		<path d="M493.518,18.48c-24.643-24.64-64.74-24.641-89.381,0L179.673,242.943c-0.004,0.004-0.008,0.008-0.012,0.012    c-0.004,0.004-0.008,0.009-0.012,0.013l-78.767,78.767c-18.671,1.861-35.984,10.03-49.431,23.474    C0.584,396.078,0,492.902,0,496.999C0,505.284,6.716,512,15.001,512c4.096,0,100.92-0.585,151.789-51.454    c13.444-13.443,21.612-30.755,23.477-49.425l303.253-303.257C518.16,83.221,518.16,43.124,493.518,18.48z M145.576,439.331    c-31.154,31.154-87.382,39.565-114.759,41.832c2.236-27.351,10.601-83.489,41.849-114.739c9.739-9.737,22.685-15.1,36.455-15.1    c13.77,0,26.719,5.362,36.455,15.099c9.737,9.739,15.101,22.685,15.101,36.455C160.677,416.649,155.314,429.595,145.576,439.331z     M185.29,373.669c-4.041-10.55-10.273-20.234-18.499-28.461c-8.228-8.226-17.911-14.456-28.459-18.496l51.937-51.935    l46.956,46.956L185.29,373.669z M472.306,86.65L258.439,300.518l-46.956-46.955L425.352,39.695    c12.946-12.944,34.01-12.942,46.952,0C485.25,52.641,485.25,73.704,472.306,86.65z" fill="#fdd35c"/>
	</g>
</g>
<g>
</g>
<g>
</g>
<g>
</g>
<g>
</g>
<g>
</g>
<g>
</g>
<g>
</g>
<g>
</g>
<g>
</g>
<g>
</g>
<g>
</g>
<g>
</g>
<g>
</g>
<g>
</g>
<g>
</g>
</svg>
